<svg width="20" height="20" viewBox="0 0 20 20" fill="none" xmlns="http://www.w3.org/2000/svg">
    <path d="M4.47679 20H0.330357V6.64714H4.47679V20ZM2.40179 4.82857C1.07589 4.82857 0 3.72857 0 2.41429C0 1.1 1.07589 0 2.40179 0C3.72768 0 4.80357 1.1 4.80357 2.41429C4.80357 3.72857 3.72768 4.82857 2.40179 4.82857ZM19.9955 20H15.8571V13.5C15.8571 11.95 15.8571 9.92857 13.6830 9.92857C11.5089 9.92857 11.1821 11.6429 11.1821 13.4143V20H7.03571V6.64714H11.0179V8.46571H11.0714C11.6339 7.41429 13.0134 6.30714 15.0313 6.30714C19.2321 6.30714 20 9.15714 20 12.8V20H19.9955Z" fill="white"/>
</svg> 